<svg xmlns="http://www.w3.org/2000/svg" viewBox="0 0 100.66 100.66">
    <defs>
        <style>.cls-1{fill:none;stroke:#00d605;stroke-miterlimit:10;}.cls-2{fill:#fff;}</style>
    </defs>
    <title>dark</title>
    <g id="Layer_2" data-name="Layer 2">
        <g id="Capa_1" data-name="Capa 1">
            <g id="dark">
                <g id="logo">
                    <g id="lines">
                        <path class="cls-1"
                            d="M86.51,16.2C79.62,18.8,75.13,21.45,64,22.34c-19.75,1.58-40.28-3.14-49.52-6.7" />
                        <circle class="cls-1" cx="50.33" cy="50.33" r="49.83" />
                        <path class="cls-1"
                            d="M30.88,4.25c.65,2,4.49,22.21,25.93,29.36C69.1,37.7,93.18,31,95.72,29.51" />
                        <path class="cls-1"
                            d="M2.65,35.52c4.82,9.54,8.06,20.93,25.5,34.95C42.32,81.87,63.1,91.9,72.51,95" />
                        <path class="cls-1"
                            d="M46.45.84a65.09,65.09,0,0,1,2,47.78c-7.56,21.44-24.19,32.43-33.23,37" />
                        <path class="cls-1"
                            d="M.84,45.21c17.75,11.92,40.78,10.33,55-2.39C72.06,28.21,69,5.7,68.76,3.91" />
                        <path class="cls-1"
                            d="M14.49,84.8c.61-1.2,14.1-26.89,42.32-28.67,22-1.38,36.6,12.72,38.91,15" />
                        <path class="cls-1"
                            d="M30,53a56.84,56.84,0,0,0,1-16A58.29,58.29,0,0,0,21.47,9.7" />
                        <path class="cls-1"
                            d="M33,97c9.61-15.62,20-23.59,28-28,9.45-5.24,19.34-7.62,29-18a55.67,55.67,0,0,0,8.82-12.64" />
                        <path class="cls-1"
                            d="M5,30A85.92,85.92,0,0,1,37,47C58.43,65.18,64.33,89.72,66,98" />
                        <path class="cls-1"
                            d="M83,33c-1.79,1-16.17,9.32-19,27-3,18.86,9.77,31.8,11,33" />
                    </g>
                    <g id="dots">
                        <circle class="cls-2" cx="30.67" cy="4.69" r="2.22" />
                        <circle class="cls-2" cx="51.35" cy="22.99" r="2.22" />
                        <circle class="cls-2" cx="48.35" cy="47.99" r="2.22" />
                        <circle class="cls-2" cx="9.35" cy="49.99" r="2.22" />
                        <circle class="cls-2" cx="32.35" cy="74.12" r="2.22" />
                        <circle class="cls-2" cx="75.35" cy="93.12" r="2.22" />
                        <circle class="cls-2" cx="78.18" cy="60.67" r="2.22" />
                        <circle class="cls-2" cx="95.18" cy="29.67" r="2.22" />
                    </g>
                </g>
            </g>
        </g>
    </g>
</svg>